<svg width="152" height="40" viewBox="0 0 152 40" fill="none" xmlns="http://www.w3.org/2000/svg">
<circle cx="20" cy="20" r="20" fill="#F8F9F9"/>
<path d="M20 17.6787C18.7179 17.6787 17.6786 18.7181 17.6786 20.0002C17.6786 21.2823 18.7179 22.3216 20 22.3216C21.2821 22.3216 22.3215 21.2823 22.3215 20.0002C22.3215 18.7181 21.2821 17.6787 20 17.6787Z" fill="#29CDB5"/>
<path fill-rule="evenodd" clip-rule="evenodd" d="M16.264 13.6298C18.7269 13.3545 21.2732 13.3545 23.7361 13.6298C25.0921 13.7813 26.1858 14.8498 26.345 16.2105C26.6394 18.7284 26.6394 21.272 26.345 23.7898C26.1858 25.1506 25.0921 26.219 23.7361 26.3705C21.2732 26.6458 18.7269 26.6458 16.264 26.3705C14.908 26.219 13.8143 25.1506 13.6551 23.7898C13.3606 21.272 13.3606 18.7284 13.6551 16.2105C13.8143 14.8498 14.908 13.7813 16.264 13.6298ZM23.5715 15.7145C23.177 15.7145 22.8572 16.0343 22.8572 16.4287C22.8572 16.8232 23.177 17.143 23.5715 17.143C23.966 17.143 24.2857 16.8232 24.2857 16.4287C24.2857 16.0343 23.966 15.7145 23.5715 15.7145ZM16.6072 20.0002C16.6072 18.1263 18.1262 16.6073 20 16.6073C21.8739 16.6073 23.3929 18.1263 23.3929 20.0002C23.3929 21.874 21.8739 23.393 20 23.393C18.1262 23.393 16.6072 21.874 16.6072 20.0002Z" fill="#29CDB5"/>
<circle cx="76" cy="20" r="20" fill="#F8F9F9"/>
<path fill-rule="evenodd" clip-rule="evenodd" d="M72.4206 14.922C74.8033 14.7356 77.1968 14.7356 79.5794 14.922L81.1799 15.0472C82.0714 15.117 82.8007 15.7851 82.9481 16.6671C83.3168 18.8739 83.3168 21.1266 82.9481 23.3334C82.8007 24.2153 82.0714 24.8835 81.1799 24.9532L79.5794 25.0784C77.1968 25.2648 74.8033 25.2648 72.4206 25.0784L70.8201 24.9532C69.9287 24.8835 69.1994 24.2153 69.052 23.3334C68.6833 21.1266 68.6833 18.8739 69.052 16.6671C69.1994 15.7851 69.9287 15.117 70.8201 15.0472L72.4206 14.922ZM74.5714 21.7646V18.2358C74.5714 18.0693 74.7531 17.9664 74.896 18.0521L77.8366 19.8165C77.9753 19.8997 77.9753 20.1008 77.8366 20.184L74.896 21.9484C74.7531 22.0341 74.5714 21.9312 74.5714 21.7646Z" fill="#29CDB5"/>
<circle cx="132" cy="20" r="20" fill="#F8F9F9"/>
<path d="M136.286 12.8574H134.143C133.196 12.8574 132.287 13.2337 131.617 13.9035C130.948 14.5732 130.571 15.4816 130.571 16.4289V18.5717H128.429V21.4289H130.571V27.1431H133.429V21.4289H135.571L136.286 18.5717H133.429V16.4289C133.429 16.2394 133.504 16.0577 133.638 15.9238C133.772 15.7898 133.953 15.7146 134.143 15.7146H136.286V12.8574Z" fill="#29CDB5"/>
</svg>
